<svg width="49" height="28" viewBox="0 0 49 28" fill="none" xmlns="http://www.w3.org/2000/svg">
<circle cx="12.6843" cy="22.6296" r="3.1329" fill="white" stroke="black" stroke-width="0.311688"/>
<circle cx="38.9943" cy="22.6296" r="3.1329" fill="white" stroke="black" stroke-width="0.311688"/>
<circle cx="12.6843" cy="22.6297" r="3.60272" fill="white" stroke="black" stroke-width="0.311688"/>
<circle cx="38.9944" cy="22.6297" r="3.60272" fill="white" stroke="black" stroke-width="0.311688"/>
<circle cx="12.6056" cy="22.5514" r="5.24709" fill="white" stroke="black" stroke-width="0.311688"/>
<circle cx="38.9161" cy="22.5514" r="5.24709" fill="white" stroke="black" stroke-width="0.311688"/>
<path d="M16.5995 0.15625L18.792 0.15625L19.6533 1.3308L22.3939 1.3308L41.6566 1.3308L42.2047 3.21008L44.4755 4.07142L45.8067 7.12526L45.1019 9.16114L48.1558 15.7386L48.1558 20.8284L45.4934 23.569L42.7528 23.569L42.7528 20.8284L40.8735 18.8708L36.4885 18.8708L34.8442 20.8284L34.8442 23.569L27.9739 23.569L16.5995 23.569L16.5995 20.8284L15.0334 18.8708L10.2569 18.8708L8.45592 20.8284L8.45592 23.569L0.155762 18.8708L0.155762 13.781L4.07093 11.4319L8.45592 9.16114L12.2145 9.16114L13.0908 8.41599L15.4285 4.07142L16.5995 0.15625Z" fill="white"/>
<path d="M16.0519 9.16114L18.0778 4.07142L26.6493 4.07142M16.0519 9.16114L26.6493 9.16114M16.0519 9.16114L13.2467 12.7796L13.2467 15.7386L16.5995 17.1433L19.6533 22.5978L26.6493 22.5978M40.0519 9.16114L37.87 4.07142L29.2986 4.07142M40.0519 9.16114L29.2986 9.16114M40.0519 9.16114L39.2726 14.3381L33.8181 17.1433L32.2597 22.5978L29.2986 22.5978L30.5454 14.3381L29.2986 9.16114M26.6493 4.07142L26.6493 9.16114M26.6493 4.07142L27.9739 4.07142M26.6493 9.16114L27.9739 9.16114M26.6493 9.16114L27.9739 14.3381L26.6493 22.5978M29.2986 9.16114L29.2986 4.07142M29.2986 9.16114L27.9739 9.16114M29.2986 4.07142L27.9739 4.07142M27.9739 4.07142L27.9739 9.16114M27.9739 9.16114L29.2986 14.3381L28.1133 22.5978M27.9739 23.569L34.8442 23.569L34.8442 20.8284L36.4885 18.8708L40.8735 18.8708L42.7528 20.8284L42.7528 23.569L45.4934 23.569L48.1558 20.8284L48.1558 15.7386L45.1019 9.16114L45.8067 7.12526L44.4755 4.07142L42.2047 3.21008L41.6566 1.3308L22.3939 1.3308L19.6533 1.3308L18.792 0.15625L16.5995 0.15625L15.4285 4.07142M27.9739 23.569L16.5995 23.569L16.5995 20.8284L15.0334 18.8708L10.2569 18.8708L8.45592 20.8284L8.45592 23.569L0.155762 18.8708L0.155762 13.781L4.07093 11.4319L8.45592 9.16114L12.2145 9.16114L13.0908 8.41599M27.9739 23.569L28.1133 22.5978M26.6493 22.5978L28.1133 22.5978M13.0908 8.41599L14.1817 7.79261L16.0519 4.07142L15.4285 4.07142M13.0908 8.41599L15.4285 4.07142M1.55836 14.3381L4.07093 13.2472L6.38953 13.2472L3.27264 17.1433L1.55836 17.1433L1.55836 14.3381Z" stroke="black" stroke-width="0.311688"/>
</svg>
